<?xml version="1.0" standalone="no"?>
<svg viewBox="0 0 200 200" xmlns="http://www.w3.org/2000/svg">
  <path fill="#3C97C4" d="M39.4,-64.3C48.8,-55.2,52.6,-40.5,50.9,-28C49.2,-15.5,41.9,-5.3,41.6,7C41.4,19.2,48.2,33.4,43.3,35.6C38.5,37.9,21.9,28,12.1,22.4C2.2,16.7,-0.9,15.3,-10.4,19.6C-19.8,24,-35.5,34.2,-42.8,33.1C-50.1,31.9,-49,19.4,-55.5,5.1C-62.1,-9.2,-76.3,-25.3,-71.7,-31.7C-67.2,-38.2,-43.8,-35,-28.7,-41.5C-13.7,-48,-6.8,-64.1,4.1,-70.5C15,-76.8,30,-73.4,39.4,-64.3Z" transform="translate(100 100)" />
</svg>
