<?xml version="1.0" standalone="no"?>
<svg viewBox="0 0 200 200" xmlns="http://www.w3.org/2000/svg">
  <path fill="#3C97C4" d="M33.8,-53.9C47,-44.2,62.9,-40.1,73.9,-29.7C84.9,-19.3,91,-2.7,84.6,9.2C78.3,21.1,59.5,28.2,47.1,38.8C34.8,49.4,28.7,63.4,20,64.3C11.2,65.1,-0.3,52.8,-11.2,46C-22,39.2,-32.2,37.9,-45.2,33.3C-58.1,28.8,-73.9,20.8,-71.9,12.4C-69.9,4,-50.1,-4.9,-41.8,-17.4C-33.4,-29.8,-36.6,-45.8,-31.5,-59.2C-26.5,-72.5,-13.2,-83.3,-1.4,-81.1C10.4,-78.8,20.7,-63.6,33.8,-53.9Z" transform="translate(100 100)" />
</svg>
