<?xml version="1.0" standalone="no"?>
<svg viewBox="0 0 200 200" xmlns="http://www.w3.org/2000/svg">
  <path fill="#3C97C4" d="M45,-58C60,-60.5,74.9,-50.8,79.7,-37.3C84.4,-23.8,78.9,-6.7,66.1,2.1C53.4,10.9,33.4,11.3,25.7,24.9C18,38.5,22.5,65.3,16.7,75.7C10.8,86.1,-5.5,80,-13.3,67.6C-21.2,55.1,-20.6,36.2,-33.2,26.2C-45.7,16.2,-71.4,15.1,-72,10.4C-72.5,5.7,-48,-2.5,-33.4,-7.3C-18.8,-12.1,-14.2,-13.5,-10.3,-16C-6.4,-18.6,-3.2,-22.4,5.9,-31.6C15,-40.9,30.1,-55.5,45,-58Z" transform="translate(100 80)" />
</svg>
